<svg width="68" height="57" viewBox="0 0 68 57" fill="none" xmlns="http://www.w3.org/2000/svg">
<path fill-rule="evenodd" clip-rule="evenodd" d="M60.945 38.692C62.2569 37.1818 62.4441 36.288 62.7615 34.665C62.9653 33.6231 63.0229 33.1938 62.9634 32.2488C62.8656 30.6985 62.4484 29.8458 61.77 28.4592L61.7523 28.4231C61.1291 27.1492 60.5632 26.554 59.734 25.4029C58.5882 23.8123 57.8473 22.9938 56.6056 21.4766C55.4024 20.0065 54.4301 19.159 53.2753 17.6509C52.4521 16.5759 52.1052 16.0335 51.4588 14.9327C50.8974 13.9768 50.3509 13.5048 50.1468 12.4158C49.9277 11.2462 49.9806 10.4409 50.5505 9.39558C51.1388 8.31657 51.827 7.83232 52.9725 7.38208C53.8958 7.01921 54.5078 6.98447 55.4955 7.08006C56.5747 7.1845 57.2344 7.36101 58.1193 7.98613C58.9182 8.5505 59.2665 8.94024 59.734 9.79828C59.9194 10.1385 60.1377 10.805 60.1377 10.805C60.1377 10.805 59.4366 10.3404 58.9267 10.201C58.4311 10.0655 57.9266 10.012 57.4129 9.99963C56.6633 9.98153 56.101 10.0667 55.8991 10.1003C55.6973 10.1339 55.0111 10.3218 55.0918 10.4023C55.1725 10.4829 55.8991 10.9057 56.2019 11.1071C56.5046 11.3084 57.2925 11.488 58.0184 11.6104C58.8742 11.7548 60.2386 11.7111 60.2386 11.7111C60.2386 11.7111 61.6329 12.3111 62.3579 12.8185C63.0935 13.3335 63.9725 14.3286 63.9725 14.3286L64.1744 14.7313C64.1744 14.7313 63.8781 14.836 63.6698 14.9327C63.4438 15.0376 63.1652 15.4361 63.1652 15.4361C63.1652 15.4361 63.051 16.1957 62.8624 16.6442C62.6847 17.067 62.5693 17.3145 62.2569 17.6509C61.8481 18.0912 61.5291 18.3125 60.945 18.4563L60.9219 18.462C60.4749 18.5721 60.1561 18.6507 59.734 18.4563C59.2758 18.2453 58.8257 17.4496 58.8257 17.4496C58.8257 17.4496 58.6359 16.6457 58.7248 16.1408C58.7983 15.7237 59.1285 15.134 59.1285 15.134C59.1285 15.134 57.7317 15.0772 56.9083 14.9327C56.3146 14.8285 55.4955 14.53 55.4955 14.53C55.4955 14.53 54.555 14.2021 54.0826 13.9259C53.2137 13.418 51.9634 12.6172 51.9634 12.6172C51.9634 12.6172 52.3724 13.5817 52.6698 14.0266C53.2753 14.9327 53.4249 15.2833 54.0826 15.9394C55.0918 16.9462 55.6533 17.5605 56.5046 18.557C57.1037 19.2581 57.3231 19.5635 57.9175 20.2685C58.5834 21.0582 58.979 21.4824 59.6331 22.282C59.9522 22.672 60.4404 23.2887 60.4404 23.2887C60.4404 23.2887 61.2383 22.8606 61.6514 22.4833C61.9803 22.183 62.3579 21.5772 62.3579 21.5772C62.3579 21.5772 62.4942 21.2131 62.5597 20.9732C62.7165 20.3992 62.7615 19.3624 62.7615 19.3624C62.7615 19.3624 64.0395 18.5299 64.7799 17.8523C65.4168 17.2693 66.2936 16.1408 66.2936 16.1408L67.0001 15.0334V14.1273L64.679 12.7178L63.1652 11.7111L61.9542 11.0064L61.6514 10.1003L61.0459 8.38883L60.1377 6.57668L58.9267 5.26791C58.9267 5.26791 57.7955 4.46645 57.0092 4.05981C56.1776 3.62969 55.7104 3.32288 54.789 3.15374C53.9751 3.00431 53.4889 3.03572 52.6698 3.15374C51.9411 3.25873 51.5414 3.39583 50.8533 3.65711C50.112 3.93858 49.6845 4.10667 49.0368 4.56319C48.3084 5.07648 47.9174 5.43425 47.4221 6.17398C46.9908 6.81794 46.8336 7.24312 46.6147 7.98613C46.401 8.7117 46.3617 9.14432 46.312 9.89895C46.2525 10.8021 46.2467 11.3247 46.4129 12.2145C46.5567 12.9846 46.7226 13.4016 47.0184 14.1273C47.4236 15.1214 47.7558 15.6362 48.3303 16.5435C49.1851 17.8933 49.8136 18.5514 50.8533 19.7651C51.7592 20.8227 52.3377 21.3529 53.2753 22.3826C54.2699 23.4751 54.8538 24.0656 55.7982 25.2015C56.533 26.0854 57.2111 26.8794 57.6147 27.5171C57.6147 27.5171 58.8459 29.4903 58.9267 29.7319C59.0074 29.9735 59.4985 30.9736 59.734 31.4434C59.9695 31.9132 60.1083 32.8415 60.1377 33.7589C60.1694 34.7483 60.1024 35.3225 59.8349 36.2758C59.6159 37.0563 59.4404 37.4905 59.0276 38.1886C58.502 39.0774 58.19 39.4211 57.5138 40.2021C56.9661 40.8347 55.8991 41.8129 55.8991 41.8129C55.8991 41.8129 57.4129 41.1082 58.4221 40.4034C59.4313 39.6987 60.2054 39.5433 60.945 38.692ZM60.4404 19.8658C60.0007 19.8944 59.3303 19.5637 59.3303 19.5637C59.3303 19.5637 59.8146 21.0739 60.5413 21.0739C61.0459 21.0739 61.2478 19.5637 61.2478 19.5637C61.2478 19.5637 60.7647 19.8447 60.4404 19.8658Z" fill="black"/>
<path d="M61.7524 28.4231C61.1291 27.1492 60.5632 26.554 59.734 25.4029C58.5882 23.8123 57.8473 22.9938 56.6056 21.4766C55.4024 20.0065 54.4301 19.159 53.2753 17.6509C52.4521 16.5759 52.1052 16.0335 51.4588 14.9327C50.8974 13.9768 50.3509 13.5048 50.1468 12.4158C49.9277 11.2462 49.9806 10.4409 50.5505 9.39558C51.1388 8.31657 51.827 7.83232 52.9725 7.38208C53.8958 7.01921 54.5078 6.98447 55.4955 7.08006C56.5747 7.18451 57.2344 7.36101 58.1193 7.98613C58.9182 8.5505 59.2665 8.94024 59.734 9.79828C59.9194 10.1385 60.1377 10.805 60.1377 10.805C60.1377 10.805 59.4366 10.3404 58.9267 10.201C58.4311 10.0655 57.9266 10.012 57.4129 9.99963C56.6633 9.98154 56.101 10.0667 55.8991 10.1003C55.6973 10.1339 55.0111 10.3218 55.0918 10.4023C55.1725 10.4829 55.8991 10.9057 56.2019 11.1071C56.5046 11.3084 57.2925 11.488 58.0184 11.6104C58.8742 11.7548 60.2386 11.7111 60.2386 11.7111C60.2386 11.7111 61.6329 12.3111 62.3579 12.8185C63.0935 13.3335 63.9725 14.3286 63.9725 14.3286L64.1744 14.7313C64.1744 14.7313 63.8781 14.836 63.6698 14.9327C63.4438 15.0376 63.1652 15.4361 63.1652 15.4361C63.1652 15.4361 63.051 16.1957 62.8624 16.6442C62.6847 17.067 62.5693 17.3145 62.2569 17.6509C61.8481 18.0912 61.5291 18.3125 60.945 18.4563M61.7524 28.4231L61.77 28.4592M61.7524 28.4231C61.7582 28.4352 61.7641 28.4472 61.77 28.4592M60.945 18.4563L60.9219 18.462M60.945 18.4563C60.9373 18.4582 60.9295 18.4601 60.9219 18.462M61.77 28.4592C62.4484 29.8458 62.8656 30.6985 62.9634 32.2488C63.0229 33.1938 62.9653 33.6231 62.7615 34.665C62.4441 36.288 62.2569 37.1818 60.945 38.692C60.2054 39.5433 59.4313 39.6987 58.4221 40.4034C57.4129 41.1082 55.8991 41.8129 55.8991 41.8129C55.8991 41.8129 56.9661 40.8347 57.5138 40.2021C58.19 39.4211 58.502 39.0774 59.0276 38.1886C59.4404 37.4905 59.6159 37.0563 59.8349 36.2758C60.1024 35.3225 60.1694 34.7483 60.1377 33.7589C60.1083 32.8415 59.9695 31.9132 59.734 31.4434C59.4985 30.9736 59.0074 29.9735 58.9267 29.7319C58.8459 29.4903 57.6147 27.5171 57.6147 27.5171C57.2111 26.8794 56.533 26.0854 55.7982 25.2015C54.8538 24.0656 54.2699 23.4751 53.2753 22.3826C52.3377 21.3529 51.7592 20.8227 50.8533 19.7651C49.8136 18.5514 49.1851 17.8933 48.3303 16.5435C47.7558 15.6362 47.4236 15.1214 47.0184 14.1273C46.7226 13.4016 46.5567 12.9846 46.4129 12.2145C46.2467 11.3247 46.2525 10.8021 46.312 9.89895C46.3617 9.14432 46.401 8.7117 46.6147 7.98613C46.8336 7.24312 46.9908 6.81794 47.4221 6.17398C47.9174 5.43425 48.3084 5.07648 49.0368 4.56319C49.6845 4.10667 50.112 3.93858 50.8533 3.65711C51.5414 3.39583 51.9411 3.25873 52.6698 3.15374C53.4889 3.03572 53.9751 3.00431 54.789 3.15374C55.7104 3.32288 56.1776 3.62969 57.0092 4.05981C57.7955 4.46645 58.9267 5.26791 58.9267 5.26791L60.1377 6.57668L61.0459 8.38883L61.6514 10.1003L61.9542 11.0064L63.1652 11.7111L64.679 12.7178L67.0001 14.1273V15.0334L66.2936 16.1408C66.2936 16.1408 65.4168 17.2693 64.7799 17.8523C64.0395 18.5299 62.7615 19.3624 62.7615 19.3624C62.7615 19.3624 62.7165 20.3992 62.5597 20.9732C62.4941 21.2131 62.3579 21.5772 62.3579 21.5772C62.3579 21.5772 61.9803 22.183 61.6514 22.4833C61.2383 22.8606 60.4404 23.2887 60.4404 23.2887C60.4404 23.2887 59.9522 22.672 59.6331 22.282C58.979 21.4824 58.5834 21.0582 57.9175 20.2685C57.3231 19.5635 57.1037 19.2581 56.5046 18.557C55.6533 17.5605 55.0918 16.9462 54.0826 15.9394C53.4249 15.2833 53.2753 14.9327 52.6698 14.0266C52.3724 13.5817 51.9634 12.6172 51.9634 12.6172C51.9634 12.6172 53.2137 13.418 54.0826 13.9259C54.555 14.2021 55.4955 14.53 55.4955 14.53C55.4955 14.53 56.3146 14.8285 56.9083 14.9327C57.7317 15.0772 59.1285 15.134 59.1285 15.134C59.1285 15.134 58.7983 15.7237 58.7248 16.1408C58.6359 16.6457 58.8257 17.4496 58.8257 17.4496C58.8257 17.4496 59.2758 18.2453 59.734 18.4563C60.1561 18.6507 60.4749 18.5721 60.9219 18.462M59.3303 19.5637C59.3303 19.5637 60.0007 19.8944 60.4404 19.8658C60.7647 19.8447 61.2478 19.5637 61.2478 19.5637C61.2478 19.5637 61.0459 21.0739 60.5413 21.0739C59.8146 21.0739 59.3303 19.5637 59.3303 19.5637Z" stroke="#FF0000" stroke-width="0.5"/>
<path d="M49.4404 31.9467C49.4404 31.9467 51.0146 33.6373 51.3578 34.8663C51.6671 35.9737 51.8534 36.2992 51.6606 37.3832C51.4138 38.7708 50.8506 39.6477 50.0459 40.8061C49.5413 41.5325 48.8349 42.6182 48.8349 42.6182C48.8349 42.6182 48.1499 41.3841 47.9267 40.6048C47.523 39.1953 47.5317 38.4833 47.7248 37.0811C47.9083 35.7488 48.2156 34.8527 48.8349 33.6582C49.1613 33.0286 49.4404 31.9467 49.4404 31.9467Z" fill="black" stroke="#FF0000" stroke-width="0.5"/>
<path d="M49.945 1.94562C49.104 1.84495 47.0184 1.6436 45.8074 2.0463C44.5964 2.449 42.9817 3.2544 42.1744 4.36182C41.367 5.46924 40.2569 6.67734 40.0551 8.59016C39.8533 10.503 39.8105 11.7111 40.2569 14.228C40.7604 17.066 41.6636 18.5598 43.1458 21.0115L43.1836 21.0738C44.5314 23.3032 45.5958 24.3556 47.3212 26.3089C49.311 28.5616 51.1804 29.1963 52.7707 31.7454C53.4226 32.7903 53.8926 33.3682 54.1836 34.5643C54.4902 35.8251 54.432 36.613 54.1836 37.8865C53.9137 39.2699 52.7707 41.2088 52.7707 41.2088C52.7707 41.2088 54.2537 40.3745 54.9909 39.598C55.8182 38.7265 56.2071 38.113 56.6056 36.9805C56.8846 36.1874 56.9588 35.7053 57.0092 34.8663C57.083 33.6396 56.9744 32.9179 56.6056 31.7454C55.954 29.674 53.3762 27.215 53.3762 27.215C53.3762 27.215 51.4586 25.2002 50.2478 23.8927C48.733 22.2571 47.7209 21.4689 46.4129 19.6644C45.1612 17.9375 43.6881 14.9327 43.6881 14.9327C43.6881 14.9327 42.7152 12.2426 42.578 10.503C42.4749 9.19421 42.4604 8.37728 42.8808 6.97937C43.1836 5.97262 43.4863 5.26789 44.0918 4.66384C44.6973 4.0598 45.101 3.75777 46.4129 3.05305C47.7248 2.34833 49.945 1.94562 49.945 1.94562Z" fill="black"/>
<path d="M43.1836 21.0738C44.5314 23.3032 45.5958 24.3556 47.3212 26.3089C49.311 28.5616 51.1804 29.1963 52.7707 31.7454C53.4226 32.7903 53.8926 33.3682 54.1836 34.5643C54.4902 35.8251 54.432 36.613 54.1836 37.8865C53.9137 39.2699 52.7707 41.2088 52.7707 41.2088C52.7707 41.2088 54.2537 40.3745 54.9909 39.598C55.8182 38.7265 56.2071 38.113 56.6056 36.9805C56.8846 36.1874 56.9588 35.7053 57.0092 34.8663C57.083 33.6396 56.9744 32.9179 56.6056 31.7454C55.954 29.674 53.3762 27.215 53.3762 27.215C53.3762 27.215 51.4586 25.2002 50.2478 23.8927C48.733 22.2571 47.7209 21.4689 46.4129 19.6644C45.1612 17.9375 43.6881 14.9327 43.6881 14.9327C43.6881 14.9327 42.7152 12.2426 42.578 10.503C42.4749 9.19421 42.4604 8.37728 42.8808 6.97937C43.1836 5.97262 43.4863 5.26789 44.0918 4.66384C44.6973 4.0598 45.101 3.75777 46.4129 3.05305C47.7248 2.34833 49.945 1.94562 49.945 1.94562C49.104 1.84495 47.0184 1.6436 45.8074 2.0463C44.5964 2.449 42.9817 3.2544 42.1744 4.36182C41.367 5.46925 40.2569 6.67734 40.0551 8.59016C39.8533 10.503 39.8105 11.7111 40.2569 14.228C40.7604 17.066 41.6636 18.5598 43.1458 21.0115M43.1836 21.0738L43.1458 21.0115M43.1836 21.0738C43.1709 21.053 43.1584 21.0322 43.1458 21.0115" stroke="#FF0000" stroke-width="0.5"/>
<path d="M37.0276 16.3421C36.5231 14.228 36.5903 10.1674 36.8258 8.08679C36.5573 8.30106 35.93 8.81884 35.413 9.79826C34.9583 10.6596 34.801 11.857 34.7065 12.5165C34.5047 13.9259 34.7065 16.6442 35.3121 18.6576C35.6648 19.8308 37.6332 23.5907 39.7524 25.1008C40.4137 25.572 43.6957 27.5125 44.5174 28.0708C43.7279 27.2676 40.7072 23.5039 40.257 22.7853C39.7524 21.9799 37.5451 18.5101 37.0276 16.3421Z" fill="black"/>
<path d="M44.5174 28.0708C43.6957 27.5125 40.4137 25.572 39.7524 25.1008C37.6332 23.5907 35.6648 19.8308 35.3121 18.6576C34.7065 16.6442 34.5047 13.9259 34.7065 12.5165C34.801 11.857 34.9583 10.6596 35.413 9.79826C35.93 8.81884 36.5573 8.30106 36.8258 8.08679C36.5903 10.1674 36.5231 14.228 37.0276 16.3421C37.5451 18.5101 39.7524 21.9799 40.257 22.7853C40.7072 23.5039 43.7279 27.2676 44.5174 28.0708ZM44.5174 28.0708C44.6584 28.1667 44.7269 28.2218 44.6974 28.2218C44.6756 28.2218 44.6128 28.1679 44.5174 28.0708Z" stroke="#FF0000" stroke-width="0.5"/>
<path d="M22.2936 17.3489C21.1835 9.69761 30.0642 8.08681 31.578 7.78479C31.9817 10.3017 31.1743 16.2415 29.5597 17.5502C28.8532 18.2885 27.1499 20.1678 23.4037 20.1678C18.8624 20.1678 20.3308 19.7408 16.2386 19.0604C12.6055 18.4563 11.0918 18.9597 9.88077 19.2617C9.10707 19.6309 7.41839 20.5101 6.85325 21.0739C6.14683 21.7786 5.03673 22.6847 4.8349 23.6914C4.63306 24.6982 4.63306 25.9063 4.93582 26.5103C5.23857 27.1144 6.44958 28.5238 7.55967 29.2285C8.66976 29.9333 9.07343 30.2353 9.98169 30.336C10.8899 30.4366 12.5858 30.4276 13.4129 30.336C14.3211 30.2353 15.1285 30.0339 16.2386 29.5306C17.3487 29.0272 20.2753 27.7184 21.2844 27.215C22.2936 26.7117 25.2202 25.7049 26.3303 25.5036C27.4404 25.3022 31.3762 24.7988 31.3762 24.7988C31.3762 24.7988 25.6239 26.309 24.6147 26.913C23.6055 27.5171 20.9817 28.4231 20.0734 29.1279C19.1652 29.8326 17.3487 31.0407 16.945 31.7454C16.5413 32.4501 15.734 34.0609 15.5321 34.967C15.3303 35.8731 15.1285 37.9872 15.0276 38.692C14.9419 39.2899 14.3211 41.2088 14.1193 41.7122C13.9578 42.1149 12.7401 43.5579 12.101 44.1284C12.9419 43.9942 14.2202 43.5244 14.9266 43.323C15.9257 43.0383 17.6514 42.0142 18.9633 41.1082C19.1988 40.9068 20.4731 39.8034 21.2844 38.994C22.2936 37.9872 22.4999 37.1421 22.7982 36.1751C23.2019 34.8663 23.7065 32.7521 24.211 32.7521C24.4129 32.5508 25.2814 33.5046 25.6239 33.9602C26.2294 34.7656 26.9358 35.1683 27.4404 35.4704C27.5181 35.5169 28.1216 34.967 28.3487 34.0609C28.5505 33.2555 28.99 31.6097 29.2569 31.7454C29.8624 32.0532 31.6789 35.7666 32.0826 35.9679C32.4863 36.1693 32.8352 35.3867 32.8899 35.1683C32.9909 34.7656 33.3945 33.5575 33.5964 33.0542C33.7982 32.5508 34.101 31.9468 34.6055 31.7454C35.0092 31.5843 36.1193 34.2623 36.523 34.8663C36.9305 35.4762 37.3303 35.4704 37.5322 35.3697C37.734 35.269 38.81 33.6252 39.3487 32.9535C39.7523 32.4501 42.6324 30.0339 42.5315 30.1346C42.4306 30.2353 42.2753 32.8528 41.9725 34.3629C41.6698 35.8731 41.6698 37.3832 41.6698 38.3899C41.6698 38.8262 42.1744 41.8174 42.4771 42.9203C42.8916 44.4304 43.6589 46.3714 43.789 46.5446C44.0918 46.9473 46.1913 50.8236 46.9175 51.2763C47.7248 51.7797 49.5413 52.2831 50.0459 52.3837C50.5505 52.4844 52.1652 51.8804 52.4679 51.679C52.7707 51.4777 53.9817 51.377 54.4863 51.377C54.9909 51.377 55.3945 51.679 55.8991 51.8804C56.4037 52.0817 57.1101 53.1891 57.7156 53.9945C58.2 54.6389 58.1193 55.2698 58.0184 55.5047C55.2936 55.5382 50.0459 55.5047 49.5413 55.5047C49.2222 55.5047 47.523 54.6993 47.2202 54.3972C46.9175 54.0952 44.0918 51.8804 43.789 51.4777C43.4863 51.075 41.0643 48.0547 40.8624 47.5513C40.6606 47.048 39.3487 44.1284 39.0459 43.4237C38.8037 42.8599 38.474 41.041 38.3395 40.2021C37.0276 40.1685 34.4441 40.1417 34.6055 40.3028C34.8074 40.5041 34.8074 42.3163 34.9083 43.021C35.0092 43.7257 34.5046 45.1352 34.3028 45.6385C34.101 46.1419 32.3854 47.652 32.0826 47.5513C31.7799 47.4507 30.0643 49.1621 29.8624 49.4642C29.6606 49.7662 29.9633 50.8736 30.0643 51.075C30.1652 51.2763 31.578 50.9743 31.7799 50.8736C31.9817 50.7729 32.8899 50.0682 33.1927 50.0682C33.4955 50.0682 34 50.2696 34.5046 50.3702C35.0092 50.4709 35.7156 51.5783 36.2202 52.2831C36.6239 52.8468 36.6575 53.659 36.6239 53.9945C34.1682 54.0281 29.2166 54.0751 29.0551 53.9945C28.8533 53.8939 28.0459 53.3905 27.7432 53.1891C27.4404 52.9878 26.4312 51.7797 26.2294 51.2763C26.0276 50.7729 25.9266 49.6655 26.1285 48.6588C26.3303 47.652 26.9358 47.2493 27.2386 46.2426C27.4808 45.4372 26.9358 44.2962 26.6331 43.8264C26.6331 43.323 24.0813 41.6633 23.7065 41.8129C23.2019 42.0142 22.1927 43.1217 21.5872 43.625C20.9817 44.1284 18.2569 45.8399 17.4496 46.2426C16.7987 46.5672 13.0092 47.8534 12 48.2561C11.1516 48.5947 10.4863 49.2628 10.1835 49.7662C9.88077 50.2696 9.67894 51.1756 9.88077 51.5783C10.0826 51.981 10.789 51.8804 11.4955 51.8804C12.2019 51.8804 13.6216 51.4956 14.1193 51.5783C14.7248 51.679 15.6331 52.3837 16.0367 53.2898C16.4404 54.1959 16.4404 54.5986 16.0367 55.2026C15.7138 55.6859 14.8257 56.008 14.4221 56.1087C12.9419 56.1758 9.86059 56.1893 9.37618 56.1087C8.77068 56.008 6.95417 55.706 6.24774 55.2026C5.54132 54.6993 5.13765 53.0885 5.13765 52.6858C5.13765 52.2831 5.13765 49.7662 5.23857 49.3635C5.33949 48.9608 5.42923 47.1598 7.25692 45.3365L10.8899 41.7122C11.2936 41.3095 11.7982 39.7994 12.101 38.8933C12.3293 38.2099 12.101 35.9737 12.9083 34.1616C12.471 34.128 11.2936 34.3629 9.98169 34.1616C8.48553 33.932 6.85325 32.9535 5.94499 32.5508C5.03673 32.1481 3.42206 30.1346 2.81655 29.2285C2.33215 28.5037 1.94193 26.5774 1.80737 25.7049C1.80737 24.7988 1.99184 23.6188 2.41288 22.4833C2.83392 21.3478 4.73398 19.5637 5.23857 19.2617C5.74315 18.9597 7.66058 17.9529 8.56884 17.6509C10.4863 17.1475 11.9775 17.0469 14.0184 17.0469C16.5413 17.0469 18.3242 17.6845 19.6698 18.1543C21.3181 18.4563 24.9175 18.9194 26.1285 18.3556C27.3395 17.7919 27.8441 15.973 27.945 15.1341C26.4312 16.3422 27.2386 16.1408 25.8257 17.0469C25.2455 17.419 24.2111 17.8523 22.2936 17.3489Z" fill="black"/>
<path d="M10.8899 41.7122C11.2936 41.3095 11.7982 39.7994 12.101 38.8933C12.3293 38.2099 12.101 35.9737 12.9083 34.1616C12.471 34.128 11.2936 34.3629 9.98169 34.1616C8.48553 33.932 6.85325 32.9535 5.94499 32.5508C5.03673 32.1481 3.42206 30.1346 2.81655 29.2285C2.33215 28.5037 1.94193 26.5774 1.80737 25.7049C1.80737 24.7988 1.99184 23.6188 2.41288 22.4833C2.83392 21.3478 4.73398 19.5637 5.23857 19.2617C5.74315 18.9597 7.66058 17.9529 8.56884 17.6509C10.4863 17.1475 11.9775 17.0469 14.0184 17.0469C16.5413 17.0469 18.3242 17.6845 19.6698 18.1543C21.3181 18.4563 24.9175 18.9194 26.1285 18.3556C27.3395 17.7919 27.8441 15.973 27.945 15.1341C26.4312 16.3422 27.2386 16.1408 25.8257 17.0469C25.2455 17.419 24.211 17.8523 22.2936 17.3489C21.1835 9.69761 30.0642 8.08681 31.578 7.78479C31.9817 10.3017 31.1743 16.2415 29.5597 17.5502C28.8532 18.2885 27.1499 20.1678 23.4037 20.1678C18.8624 20.1678 20.3308 19.7408 16.2386 19.0604C12.6055 18.4563 11.0918 18.9597 9.88077 19.2617C9.10707 19.6309 7.41839 20.5101 6.85325 21.0739C6.14683 21.7786 5.03673 22.6847 4.8349 23.6914C4.63306 24.6982 4.63306 25.9063 4.93582 26.5103C5.23857 27.1144 6.44958 28.5238 7.55967 29.2285C8.66976 29.9333 9.07343 30.2353 9.98169 30.336C10.8899 30.4366 12.5858 30.4276 13.4129 30.336C14.3211 30.2353 15.1285 30.0339 16.2386 29.5306C17.3487 29.0272 20.2753 27.7184 21.2844 27.215C22.2936 26.7117 25.2202 25.7049 26.3303 25.5036C27.4404 25.3022 31.3762 24.7988 31.3762 24.7988C31.3762 24.7988 25.6239 26.309 24.6147 26.913C23.6055 27.5171 20.9817 28.4231 20.0734 29.1279C19.1652 29.8326 17.3487 31.0407 16.945 31.7454C16.5413 32.4501 15.734 34.0609 15.5321 34.967C15.3303 35.8731 15.1285 37.9872 15.0276 38.692C14.9419 39.2899 14.3211 41.2088 14.1193 41.7122C13.9578 42.1149 12.7401 43.5579 12.101 44.1284C12.9419 43.9942 14.2202 43.5244 14.9266 43.323C15.9257 43.0383 17.6514 42.0142 18.9633 41.1082C19.1988 40.9068 20.4731 39.8034 21.2844 38.994C22.2936 37.9872 22.4999 37.1421 22.7982 36.1751C23.2019 34.8663 23.7065 32.7521 24.211 32.7521C24.4129 32.5508 25.2814 33.5046 25.6239 33.9602C26.2294 34.7656 26.9358 35.1683 27.4404 35.4704C27.5181 35.5169 28.1216 34.967 28.3487 34.0609C28.5505 33.2555 28.99 31.6097 29.2569 31.7454C29.8624 32.0532 31.6789 35.7666 32.0826 35.9679C32.4863 36.1693 32.8352 35.3867 32.8899 35.1683C32.9909 34.7656 33.3945 33.5575 33.5964 33.0542C33.7982 32.5508 34.101 31.9468 34.6055 31.7454C35.0092 31.5843 36.1193 34.2623 36.523 34.8663C36.9305 35.4762 37.3303 35.4704 37.5322 35.3697C37.734 35.269 38.81 33.6252 39.3487 32.9535C39.7523 32.4501 42.6324 30.0339 42.5315 30.1346C42.4306 30.2353 42.2753 32.8528 41.9725 34.3629C41.6698 35.8731 41.6698 37.3832 41.6698 38.3899C41.6698 38.8262 42.1744 41.8174 42.4771 42.9203C42.8916 44.4304 43.6589 46.3715 43.789 46.5446C44.0918 46.9473 46.1913 50.8236 46.9175 51.2763C47.7248 51.7797 49.5413 52.2831 50.0459 52.3837C50.5505 52.4844 52.1652 51.8804 52.4679 51.679C52.7707 51.4777 53.9817 51.377 54.4863 51.377C54.9909 51.377 55.3945 51.679 55.8991 51.8804C56.4037 52.0817 57.1101 53.1891 57.7156 53.9945C58.2 54.6389 58.1193 55.2698 58.0184 55.5047C55.2936 55.5382 50.0459 55.5047 49.5413 55.5047C49.2222 55.5047 47.523 54.6993 47.2202 54.3972C46.9175 54.0952 44.0918 51.8804 43.789 51.4777C43.4863 51.075 41.0643 48.0547 40.8624 47.5514C40.6606 47.048 39.3487 44.1284 39.0459 43.4237C38.8037 42.8599 38.474 41.041 38.3395 40.2021C37.0276 40.1685 34.4441 40.1417 34.6055 40.3028C34.8074 40.5041 34.8074 42.3163 34.9083 43.021C35.0092 43.7257 34.5046 45.1352 34.3028 45.6385C34.101 46.1419 32.3854 47.652 32.0826 47.5514C31.7799 47.4507 30.0643 49.1621 29.8624 49.4642C29.6606 49.7662 29.9633 50.8736 30.0643 51.075C30.1652 51.2763 31.578 50.9743 31.7799 50.8736C31.9817 50.7729 32.8899 50.0682 33.1927 50.0682C33.4955 50.0682 34 50.2696 34.5046 50.3702C35.0092 50.4709 35.7156 51.5783 36.2202 52.2831C36.6239 52.8468 36.6575 53.659 36.6239 53.9945C34.1682 54.0281 29.2166 54.0751 29.0551 53.9945C28.8533 53.8939 28.0459 53.3905 27.7432 53.1891C27.4404 52.9878 26.4312 51.7797 26.2294 51.2763C26.0276 50.7729 25.9266 49.6655 26.1285 48.6588C26.3303 47.652 26.9358 47.2493 27.2386 46.2426C27.4808 45.4372 26.9358 44.2962 26.6331 43.8264C26.6331 43.323 24.0813 41.6633 23.7065 41.8129C23.2019 42.0142 22.1927 43.1217 21.5872 43.625C20.9817 44.1284 18.2569 45.8399 17.4496 46.2426C16.7987 46.5672 13.0092 47.8534 12 48.2561C11.1516 48.5947 10.4863 49.2628 10.1835 49.7662C9.88077 50.2696 9.67894 51.1756 9.88077 51.5783C10.0826 51.981 10.789 51.8804 11.4955 51.8804C12.2019 51.8804 13.6216 51.4956 14.1193 51.5783C14.7248 51.679 15.6331 52.3837 16.0367 53.2898C16.4404 54.1959 16.4404 54.5986 16.0367 55.2026C15.7138 55.6859 14.8257 56.008 14.4221 56.1087C12.9419 56.1758 9.86059 56.1893 9.37618 56.1087C8.77068 56.008 6.95417 55.706 6.24774 55.2026C5.54132 54.6993 5.13765 53.0885 5.13765 52.6858C5.13765 52.2831 5.13765 49.7662 5.23857 49.3635C5.33949 48.9608 5.42923 47.1598 7.25692 45.3365M10.8899 41.7122C10.4863 42.1149 9.27527 43.323 7.25692 45.3365M10.8899 41.7122L7.25692 45.3365" stroke="#FF0000" stroke-width="0.5"/>
<path fill-rule="evenodd" clip-rule="evenodd" d="M60.1376 37.8866C61.4496 36.3764 61.6368 35.4826 61.9542 33.8596C62.1579 32.8177 62.2156 32.3884 62.156 31.4434C62.0582 29.8931 61.641 29.0404 60.9626 27.6538L60.945 27.6177C60.3217 26.3438 59.7558 25.7486 58.9266 24.5975C57.7809 23.0069 57.0399 22.1884 55.7982 20.6712C54.5951 19.2011 53.6228 18.3536 52.4679 16.8455C51.6447 15.7705 51.2978 15.2281 50.6514 14.1273C50.0901 13.1714 49.5435 12.6994 49.3395 11.6104C49.1203 10.4408 49.1733 9.63551 49.7431 8.59019C50.3314 7.51118 51.0196 7.02693 52.1652 6.57669C53.0884 6.21382 53.7004 6.17908 54.6881 6.27467C55.7674 6.37912 56.427 6.55562 57.3119 7.18074C58.1109 7.74511 58.4591 8.13485 58.9266 8.99289C59.112 9.3331 59.3303 9.99964 59.3303 9.99964C59.3303 9.99964 58.6292 9.53497 58.1193 9.39559C57.6237 9.26014 57.1192 9.20664 56.6055 9.19424C55.8559 9.17615 55.2936 9.26136 55.0918 9.29491C54.8899 9.32847 54.2037 9.5164 54.2844 9.59694C54.3652 9.67748 55.0918 10.1003 55.3945 10.3017C55.6973 10.503 56.4851 10.6826 57.211 10.805C58.0668 10.9494 59.4312 10.9057 59.4312 10.9057C59.4312 10.9057 60.8255 11.5057 61.5505 12.0131C62.2862 12.5281 63.1652 13.5233 63.1652 13.5233L63.367 13.926C63.367 13.926 63.0708 14.0306 62.8624 14.1273C62.6364 14.2322 62.3578 14.6307 62.3578 14.6307C62.3578 14.6307 62.2436 15.3903 62.0551 15.8388C61.8773 16.2616 61.7619 16.5092 61.4496 16.8455C61.0408 17.2858 60.7217 17.5071 60.1376 17.6509L60.1145 17.6566C59.6676 17.7667 59.3488 17.8453 58.9266 17.6509C58.4684 17.4399 58.0184 16.6442 58.0184 16.6442C58.0184 16.6442 57.8285 15.8403 57.9175 15.3354C57.991 14.9184 58.3211 14.3287 58.3211 14.3287C58.3211 14.3287 56.9243 14.2718 56.1009 14.1273C55.5072 14.0231 54.6881 13.7246 54.6881 13.7246C54.6881 13.7246 53.7476 13.3967 53.2753 13.1206C52.4064 12.6126 51.156 11.8118 51.156 11.8118C51.156 11.8118 51.5651 12.7763 51.8624 13.2212C52.4679 14.1273 52.6176 14.4779 53.2753 15.1341C54.2844 16.1408 54.8459 16.7552 55.6973 17.7516C56.2963 18.4527 56.5157 18.7581 57.1101 19.4631C57.776 20.2528 58.1716 20.677 58.8257 21.4766C59.1448 21.8666 59.633 22.4833 59.633 22.4833C59.633 22.4833 60.4309 22.0552 60.8441 21.6779C61.173 21.3776 61.5505 20.7718 61.5505 20.7718C61.5505 20.7718 61.6868 20.4077 61.7523 20.1678C61.9091 19.5938 61.9542 18.557 61.9542 18.557C61.9542 18.557 63.2321 17.7245 63.9725 17.0469C64.6094 16.4639 65.4863 15.3354 65.4863 15.3354L66.1927 14.228V13.3219L63.8716 11.9125L62.3578 10.9057L61.1468 10.201L60.8441 9.29491L60.2386 7.58344L59.3303 5.77129L58.1193 4.46252C58.1193 4.46252 56.9881 3.66106 56.2019 3.25442C55.3702 2.8243 54.903 2.51749 53.9817 2.34835C53.1677 2.19892 52.6815 2.23033 51.8624 2.34835C51.1337 2.45334 50.734 2.59044 50.0459 2.85172C49.3047 3.13319 48.8772 3.30128 48.2294 3.7578C47.501 4.27109 47.1101 4.62886 46.6147 5.3686C46.1835 6.01255 46.0263 6.43773 45.8074 7.18074C45.5936 7.90631 45.5543 8.33893 45.5046 9.09356C45.4452 9.99674 45.4394 10.5193 45.6055 11.4091C45.7493 12.1792 45.9152 12.5963 46.211 13.3219C46.6163 14.316 46.9484 14.8309 47.523 15.7381C48.3777 17.0879 49.0062 17.746 50.0459 18.9597C50.9518 20.0173 51.5303 20.5475 52.4679 21.5772C53.4626 22.6697 54.0464 23.2602 54.9908 24.3961C55.7257 25.28 56.4037 26.0741 56.8074 26.7117C56.8074 26.7117 58.0386 28.6849 58.1193 28.9265C58.2 29.1681 58.6912 30.1682 58.9266 30.638C59.1621 31.1078 59.3009 32.0361 59.3303 32.9535C59.362 33.9429 59.2951 34.5171 59.0275 35.4704C58.8085 36.2509 58.633 36.6851 58.2202 37.3832C57.6946 38.272 57.3827 38.6157 56.7064 39.3967C56.1588 40.0293 55.0918 41.0075 55.0918 41.0075C55.0918 41.0075 56.6055 40.3028 57.6147 39.598C58.6239 38.8933 59.3981 38.7379 60.1376 37.8866ZM59.633 19.0604C59.1934 19.089 58.523 18.7583 58.523 18.7583C58.523 18.7583 59.0073 20.2685 59.734 20.2685C60.2386 20.2685 60.4404 18.7583 60.4404 18.7583C60.4404 18.7583 59.9574 19.0393 59.633 19.0604Z" fill="white"/>
<path d="M60.945 27.6177C60.3217 26.3438 59.7558 25.7487 58.9266 24.5975C57.7809 23.0069 57.0399 22.1884 55.7982 20.6712C54.5951 19.2011 53.6228 18.3536 52.4679 16.8455C51.6447 15.7705 51.2978 15.2281 50.6514 14.1273C50.0901 13.1714 49.5435 12.6994 49.3395 11.6104C49.1203 10.4408 49.1733 9.63551 49.7431 8.59019C50.3314 7.51118 51.0196 7.02693 52.1652 6.57669C53.0884 6.21382 53.7004 6.17908 54.6881 6.27467C55.7674 6.37912 56.427 6.55562 57.3119 7.18074C58.1109 7.74511 58.4591 8.13485 58.9266 8.99289C59.112 9.3331 59.3303 9.99964 59.3303 9.99964C59.3303 9.99964 58.6292 9.53497 58.1193 9.39559C57.6237 9.26014 57.1192 9.20664 56.6055 9.19424C55.8559 9.17615 55.2936 9.26136 55.0918 9.29491C54.8899 9.32847 54.2037 9.5164 54.2844 9.59694C54.3652 9.67748 55.0918 10.1003 55.3945 10.3017C55.6973 10.503 56.4851 10.6826 57.211 10.805C58.0668 10.9494 59.4312 10.9057 59.4312 10.9057C59.4312 10.9057 60.8255 11.5057 61.5505 12.0131C62.2862 12.5281 63.1652 13.5233 63.1652 13.5233L63.367 13.926C63.367 13.926 63.0708 14.0306 62.8624 14.1273C62.6364 14.2322 62.3578 14.6307 62.3578 14.6307C62.3578 14.6307 62.2436 15.3903 62.0551 15.8388C61.8773 16.2616 61.7619 16.5092 61.4496 16.8455C61.0408 17.2858 60.7217 17.5071 60.1376 17.6509M60.945 27.6177L60.9626 27.6538M60.945 27.6177C60.9509 27.6298 60.9568 27.6418 60.9626 27.6538M60.1376 17.6509L60.1145 17.6566M60.1376 17.6509C60.1299 17.6528 60.1222 17.6547 60.1145 17.6566M60.9626 27.6538C61.641 29.0404 62.0582 29.8931 62.156 31.4434C62.2156 32.3884 62.1579 32.8177 61.9542 33.8596C61.6368 35.4826 61.4496 36.3764 60.1376 37.8866C59.3981 38.7379 58.6239 38.8933 57.6147 39.598C56.6055 40.3028 55.0918 41.0075 55.0918 41.0075C55.0918 41.0075 56.1588 40.0293 56.7064 39.3967C57.3827 38.6157 57.6946 38.2721 58.2202 37.3832C58.633 36.6851 58.8085 36.2509 59.0275 35.4704C59.2951 34.5171 59.362 33.9429 59.3303 32.9535C59.3009 32.0361 59.1621 31.1078 58.9266 30.638C58.6912 30.1682 58.2 29.1681 58.1193 28.9265C58.0386 28.6849 56.8074 26.7117 56.8074 26.7117C56.4037 26.0741 55.7257 25.28 54.9908 24.3961C54.0464 23.2602 53.4626 22.6697 52.4679 21.5772C51.5303 20.5475 50.9518 20.0173 50.0459 18.9597C49.0062 17.746 48.3777 17.0879 47.523 15.7381C46.9484 14.8309 46.6163 14.316 46.211 13.3219C45.9152 12.5963 45.7493 12.1792 45.6055 11.4091C45.4394 10.5193 45.4452 9.99674 45.5046 9.09356C45.5543 8.33893 45.5936 7.90631 45.8074 7.18074C46.0263 6.43773 46.1835 6.01255 46.6147 5.3686C47.1101 4.62886 47.501 4.27109 48.2294 3.7578C48.8772 3.30128 49.3047 3.13319 50.0459 2.85172C50.734 2.59044 51.1337 2.45334 51.8624 2.34835C52.6815 2.23033 53.1677 2.19892 53.9817 2.34835C54.903 2.51749 55.3702 2.8243 56.2019 3.25442C56.9881 3.66106 58.1193 4.46252 58.1193 4.46252L59.3303 5.77129L60.2386 7.58344L60.8441 9.29491L61.1468 10.201L62.3578 10.9057L63.8716 11.9125L66.1927 13.3219V14.228L65.4863 15.3354C65.4863 15.3354 64.6094 16.4639 63.9725 17.0469C63.2321 17.7245 61.9542 18.557 61.9542 18.557C61.9542 18.557 61.9091 19.5938 61.7523 20.1678C61.6868 20.4077 61.5505 20.7718 61.5505 20.7718C61.5505 20.7718 61.173 21.3776 60.8441 21.6779C60.4309 22.0552 59.6331 22.4833 59.6331 22.4833C59.6331 22.4833 59.1448 21.8666 58.8257 21.4766C58.1716 20.677 57.776 20.2528 57.1101 19.4631C56.5157 18.7581 56.2963 18.4527 55.6973 17.7516C54.8459 16.7552 54.2844 16.1408 53.2753 15.1341C52.6176 14.4779 52.4679 14.1273 51.8624 13.2212C51.5651 12.7763 51.156 11.8118 51.156 11.8118C51.156 11.8118 52.4064 12.6126 53.2753 13.1206C53.7476 13.3967 54.6881 13.7246 54.6881 13.7246C54.6881 13.7246 55.5072 14.0231 56.1009 14.1273C56.9243 14.2718 58.3211 14.3287 58.3211 14.3287C58.3211 14.3287 57.991 14.9184 57.9175 15.3354C57.8285 15.8403 58.0184 16.6442 58.0184 16.6442C58.0184 16.6442 58.4684 17.4399 58.9266 17.6509C59.3488 17.8453 59.6676 17.7667 60.1145 17.6566M58.523 18.7583C58.523 18.7583 59.1934 19.089 59.6331 19.0604C59.9574 19.0393 60.4404 18.7583 60.4404 18.7583C60.4404 18.7583 60.2386 20.2685 59.734 20.2685C59.0073 20.2685 58.523 18.7583 58.523 18.7583Z" stroke="black" stroke-width="0.5"/>
<path d="M48.633 31.1413C48.633 31.1413 50.2072 32.8319 50.5505 34.0609C50.8598 35.1683 51.046 35.4939 50.8532 36.5778C50.6064 37.9654 50.0432 38.8423 49.2385 40.0007C48.734 40.7271 48.0275 41.8129 48.0275 41.8129C48.0275 41.8129 47.3425 40.5787 47.1193 39.7994C46.7156 38.3899 46.7243 37.6779 46.9174 36.2757C47.1009 34.9434 47.4082 34.0473 48.0275 32.8528C48.354 32.2232 48.633 31.1413 48.633 31.1413Z" fill="white" stroke="black" stroke-width="0.5"/>
<path d="M49.1376 1.14023C48.2967 1.03956 46.211 0.838213 45 1.24091C43.789 1.64361 42.1743 2.44901 41.367 3.55643C40.5597 4.66386 39.4496 5.87195 39.2477 7.78477C39.0459 9.69759 39.0031 10.9057 39.4496 13.4226C39.953 16.2606 40.8562 17.7544 42.3385 20.2061L42.3762 20.2684C43.724 22.4978 44.7884 23.5502 46.5138 25.5035C48.5036 27.7562 50.373 28.3909 51.9633 30.94C52.6152 31.9849 53.0853 32.5628 53.3762 33.7589C53.6829 35.0197 53.6246 35.8076 53.3762 37.0811C53.1063 38.4645 51.9633 40.4034 51.9633 40.4034C51.9633 40.4034 53.4463 39.5691 54.1835 38.7926C55.0108 37.9211 55.3997 37.3076 55.7982 36.1751C56.0772 35.382 56.1514 34.8999 56.2019 34.0609C56.2756 32.8342 56.1671 32.1125 55.7982 30.94C55.1466 28.8686 52.5688 26.4096 52.5688 26.4096C52.5688 26.4096 50.6513 24.3949 49.4404 23.0873C47.9257 21.4517 46.9135 20.6635 45.6055 18.859C44.3538 17.1321 42.8808 14.1273 42.8808 14.1273C42.8808 14.1273 41.9078 11.4372 41.7707 9.6976C41.6675 8.38882 41.653 7.57189 42.0734 6.17398C42.3762 5.16723 42.6789 4.4625 43.2844 3.85845C43.8899 3.25441 44.2936 2.95238 45.6055 2.24766C46.9175 1.54294 49.1376 1.14023 49.1376 1.14023Z" fill="white"/>
<path d="M42.3762 20.2684C43.724 22.4978 44.7884 23.5502 46.5138 25.5035C48.5036 27.7562 50.373 28.3909 51.9633 30.94C52.6152 31.9849 53.0853 32.5628 53.3762 33.7589C53.6829 35.0197 53.6246 35.8076 53.3762 37.0811C53.1063 38.4645 51.9633 40.4034 51.9633 40.4034C51.9633 40.4034 53.4463 39.5691 54.1835 38.7926C55.0108 37.9211 55.3997 37.3076 55.7982 36.1751C56.0772 35.382 56.1514 34.8999 56.2019 34.0609C56.2756 32.8342 56.1671 32.1125 55.7982 30.94C55.1466 28.8686 52.5688 26.4096 52.5688 26.4096C52.5688 26.4096 50.6513 24.3949 49.4404 23.0873C47.9257 21.4517 46.9135 20.6635 45.6055 18.859C44.3538 17.1321 42.8808 14.1273 42.8808 14.1273C42.8808 14.1273 41.9078 11.4372 41.7707 9.6976C41.6675 8.38882 41.653 7.57189 42.0734 6.17398C42.3762 5.16723 42.6789 4.4625 43.2844 3.85845C43.8899 3.25441 44.2936 2.95238 45.6055 2.24766C46.9175 1.54294 49.1376 1.14023 49.1376 1.14023C48.2967 1.03956 46.211 0.838213 45 1.24091C43.789 1.64361 42.1743 2.44901 41.367 3.55643C40.5597 4.66386 39.4496 5.87195 39.2477 7.78477C39.0459 9.6976 39.0031 10.9057 39.4496 13.4226C39.953 16.2606 40.8562 17.7544 42.3385 20.2061M42.3762 20.2684L42.3385 20.2061M42.3762 20.2684C42.3636 20.2476 42.351 20.2268 42.3385 20.2061" stroke="black" stroke-width="0.5"/>
<path d="M36.2203 15.5367C35.7157 13.4226 35.783 9.36202 36.0184 7.2814C35.75 7.49567 35.1226 8.01345 34.6056 8.99287C34.151 9.85417 33.9936 11.0516 33.8992 11.7111C33.6973 13.1205 33.8992 15.8388 34.5047 17.8523C34.8575 19.0254 36.8258 22.7853 38.945 24.2955C39.6063 24.7666 42.8883 26.7071 43.71 27.2655C42.9205 26.4622 39.8998 22.6985 39.4496 21.9799C38.945 21.1745 36.7377 17.7047 36.2203 15.5367Z" fill="white"/>
<path d="M43.71 27.2655C42.8883 26.7071 39.6063 24.7666 38.945 24.2955C36.8258 22.7853 34.8575 19.0254 34.5047 17.8523C33.8992 15.8388 33.6973 13.1205 33.8992 11.7111C33.9936 11.0516 34.151 9.85417 34.6056 8.99287C35.1226 8.01345 35.75 7.49567 36.0184 7.2814C35.783 9.36202 35.7157 13.4226 36.2203 15.5367C36.7377 17.7047 38.945 21.1745 39.4496 21.9799C39.8998 22.6985 42.9205 26.4622 43.71 27.2655ZM43.71 27.2655C43.851 27.3613 43.9196 27.4164 43.89 27.4164C43.8682 27.4164 43.8054 27.3625 43.71 27.2655Z" stroke="black" stroke-width="0.5"/>
<path d="M21.4863 16.5435C20.3762 8.89219 29.2569 7.28139 30.7706 6.97937C31.1743 9.49624 30.367 15.4361 28.7523 16.7448C28.0459 17.4831 26.3425 19.3624 22.5963 19.3624C18.0551 19.3624 19.5234 18.9354 15.4312 18.255C11.7982 17.6509 10.2844 18.1543 9.07339 18.4563C8.2997 18.8254 6.61101 19.7047 6.04588 20.2684C5.33945 20.9732 4.22936 21.8792 4.02753 22.886C3.82569 23.8927 3.82569 25.1008 4.12844 25.7049C4.4312 26.3089 5.64221 27.7184 6.7523 28.4231C7.86239 29.1278 8.26606 29.4299 9.17432 29.5305C10.0826 29.6312 11.7784 29.6222 12.6055 29.5305C13.5138 29.4299 14.3211 29.2285 15.4312 28.7251C16.5413 28.2218 19.4679 26.913 20.4771 26.4096C21.4862 25.9062 24.4128 24.8995 25.5229 24.6981C26.633 24.4968 30.5688 23.9934 30.5688 23.9934C30.5688 23.9934 24.8165 25.5035 23.8073 26.1076C22.7982 26.7116 20.1743 27.6177 19.2661 28.3224C18.3578 29.0272 16.5413 30.2353 16.1376 30.94C15.7339 31.6447 14.9266 33.2555 14.7248 34.1616C14.5229 35.0676 14.3211 37.1818 14.2202 37.8865C14.1346 38.4845 13.5138 40.4034 13.3119 40.9068C13.1505 41.3095 11.9327 42.7525 11.2936 43.323C12.1346 43.1888 13.4128 42.7189 14.1193 42.5176C15.1183 42.2328 16.844 41.2088 18.156 40.3027C18.3914 40.1014 19.6657 38.998 20.4771 38.1886C21.4862 37.1818 21.6926 36.3367 21.9908 35.3697C22.3945 34.0609 22.8991 31.9467 23.4037 31.9467C23.6055 31.7454 24.474 32.6992 24.8165 33.1548C25.422 33.9602 26.1284 34.3629 26.633 34.665C26.7107 34.7114 27.3142 34.1616 27.5413 33.2555C27.7431 32.4501 28.1826 30.8043 28.4495 30.94C29.0551 31.2478 30.8716 34.9612 31.2752 35.1625C31.6789 35.3639 32.0278 34.5813 32.0826 34.3629C32.1835 33.9602 32.5872 32.7521 32.789 32.2488C32.9908 31.7454 33.2936 31.1413 33.7982 30.94C34.2018 30.7789 35.3119 33.4569 35.7156 34.0609C36.1231 34.6707 36.5229 34.665 36.7248 34.5643C36.9266 34.4636 38.0027 32.8198 38.5413 32.1481C38.945 31.6447 41.825 29.2285 41.7241 29.3292C41.6232 29.4299 41.4679 32.0474 41.1651 33.5575C40.8624 35.0676 40.8624 36.5778 40.8624 37.5845C40.8624 38.0208 41.367 41.0119 41.6697 42.1149C42.0842 43.625 42.8515 45.566 42.9817 45.7392C43.2844 46.1419 45.3839 50.0181 46.1101 50.4709C46.9174 50.9743 48.734 51.4776 49.2385 51.5783C49.7431 51.679 51.3578 51.0749 51.6606 50.8736C51.9633 50.6722 53.1743 50.5716 53.6789 50.5716C54.1835 50.5716 54.5872 50.8736 55.0918 51.0749C55.5963 51.2763 56.3028 52.3837 56.9083 53.1891C57.3927 53.8334 57.3119 54.4643 57.211 54.6992C54.4862 54.7328 49.2385 54.6992 48.734 54.6992C48.4148 54.6992 46.7156 53.8938 46.4129 53.5918C46.1101 53.2898 43.2844 51.0749 42.9817 50.6722C42.6789 50.2696 40.2569 47.2493 40.0551 46.7459C39.8532 46.2426 38.5413 43.323 38.2385 42.6183C37.9963 42.0545 37.6667 40.2356 37.5321 39.3967C36.2202 39.3631 33.6367 39.3363 33.7982 39.4973C34 39.6987 34 41.5108 34.1009 42.2156C34.2018 42.9203 33.6973 44.3297 33.4954 44.8331C33.2936 45.3365 31.578 46.8466 31.2752 46.7459C30.9725 46.6453 29.2569 48.3567 29.0551 48.6588C28.8532 48.9608 29.156 50.0682 29.2569 50.2696C29.3578 50.4709 30.7706 50.1689 30.9725 50.0682C31.1743 49.9675 32.0826 49.2628 32.3853 49.2628C32.6881 49.2628 33.1927 49.4642 33.6973 49.5648C34.2018 49.6655 34.9083 50.7729 35.4129 51.4776C35.8165 52.0414 35.8502 52.8535 35.8165 53.1891C33.3609 53.2227 28.4092 53.2697 28.2477 53.1891C28.0459 53.0884 27.2385 52.5851 26.9358 52.3837C26.633 52.1824 25.6239 50.9743 25.422 50.4709C25.2202 49.9675 25.1193 48.8601 25.3211 47.8534C25.5229 46.8466 26.1284 46.4439 26.4312 45.4372C26.6734 44.6318 26.1284 43.4908 25.8257 43.021C25.8257 42.5176 23.2739 40.8579 22.8991 41.0075C22.3945 41.2088 21.3853 42.3162 20.7798 42.8196C20.1743 43.323 17.4495 45.0345 16.6422 45.4372C15.9913 45.7618 12.2018 47.048 11.1927 47.4507C10.3442 47.7892 9.6789 48.4574 9.37615 48.9608C9.0734 49.4642 8.87156 50.3702 9.0734 50.7729C9.27523 51.1756 9.98166 51.0749 10.6881 51.0749C11.3945 51.0749 12.8142 50.6902 13.3119 50.7729C13.9174 50.8736 14.8257 51.5783 15.2294 52.4844C15.633 53.3905 15.633 53.7932 15.2294 54.3972C14.9064 54.8805 14.0184 55.2026 13.6147 55.3033C12.1346 55.3704 9.05322 55.3838 8.56881 55.3033C7.96331 55.2026 6.14679 54.9006 5.44037 54.3972C4.73395 53.8938 4.33028 52.283 4.33028 51.8803C4.33028 51.4776 4.33028 48.9608 4.4312 48.5581C4.53211 48.1554 4.62185 46.3544 6.44954 44.5311L10.0826 40.9068C10.4862 40.5041 10.9908 38.994 11.2936 38.0879C11.5219 37.4045 11.2936 35.1683 12.1009 33.3562C11.6636 33.3226 10.4862 33.5575 9.17432 33.3562C7.67816 33.1266 6.04588 32.1481 5.13762 31.7454C4.22936 31.3427 2.61468 29.3292 2.00918 28.4231C1.52477 27.6983 1.13456 25.772 1 24.8995C1 23.9934 1.18446 22.8134 1.6055 21.6779C2.02655 20.5424 3.92661 18.7583 4.43119 18.4563C4.93578 18.1543 6.85321 17.1475 7.76147 16.8455C9.6789 16.3421 11.1701 16.2415 13.211 16.2415C15.7339 16.2415 17.5168 16.8791 18.8624 17.3489C20.5107 17.6509 24.1101 18.114 25.3211 17.5502C26.5321 16.9864 27.0367 15.1676 27.1376 14.3286C25.6239 15.5367 26.4312 15.3354 25.0184 16.2415C24.4381 16.6136 23.4037 17.0469 21.4863 16.5435Z" fill="white"/>
<path d="M10.0826 40.9068C10.4862 40.5041 10.9908 38.994 11.2936 38.0879C11.5219 37.4045 11.2936 35.1683 12.1009 33.3562C11.6636 33.3226 10.4862 33.5575 9.17432 33.3562C7.67816 33.1266 6.04588 32.1481 5.13762 31.7454C4.22936 31.3427 2.61468 29.3292 2.00918 28.4231C1.52477 27.6983 1.13456 25.772 1 24.8995C1 23.9934 1.18446 22.8134 1.6055 21.6779C2.02655 20.5424 3.92661 18.7583 4.43119 18.4563C4.93578 18.1543 6.85321 17.1475 7.76147 16.8455C9.6789 16.3421 11.1701 16.2415 13.211 16.2415C15.7339 16.2415 17.5168 16.8791 18.8624 17.3489C20.5107 17.6509 24.1101 18.114 25.3211 17.5502C26.5321 16.9864 27.0367 15.1676 27.1376 14.3286C25.6239 15.5367 26.4312 15.3354 25.0184 16.2415C24.4381 16.6136 23.4037 17.0469 21.4863 16.5435C20.3762 8.89219 29.2569 7.28139 30.7706 6.97937C31.1743 9.49624 30.367 15.4361 28.7523 16.7448C28.0459 17.4831 26.3425 19.3624 22.5963 19.3624C18.0551 19.3624 19.5234 18.9354 15.4312 18.255C11.7982 17.6509 10.2844 18.1543 9.07339 18.4563C8.2997 18.8254 6.61101 19.7047 6.04588 20.2684C5.33945 20.9732 4.22936 21.8792 4.02753 22.886C3.82569 23.8927 3.82569 25.1008 4.12844 25.7049C4.4312 26.3089 5.64221 27.7184 6.7523 28.4231C7.86239 29.1278 8.26606 29.4299 9.17432 29.5305C10.0826 29.6312 11.7784 29.6222 12.6055 29.5305C13.5138 29.4299 14.3211 29.2285 15.4312 28.7251C16.5413 28.2218 19.4679 26.913 20.4771 26.4096C21.4862 25.9062 24.4129 24.8995 25.5229 24.6981C26.633 24.4968 30.5688 23.9934 30.5688 23.9934C30.5688 23.9934 24.8165 25.5035 23.8073 26.1076C22.7982 26.7116 20.1743 27.6177 19.2661 28.3224C18.3578 29.0272 16.5413 30.2353 16.1376 30.94C15.7339 31.6447 14.9266 33.2555 14.7248 34.1616C14.5229 35.0676 14.3211 37.1818 14.2202 37.8865C14.1346 38.4845 13.5138 40.4034 13.3119 40.9068C13.1505 41.3095 11.9327 42.7525 11.2936 43.323C12.1346 43.1888 13.4128 42.7189 14.1193 42.5176C15.1183 42.2328 16.844 41.2088 18.156 40.3027C18.3914 40.1014 19.6657 38.998 20.4771 38.1886C21.4862 37.1818 21.6926 36.3367 21.9908 35.3697C22.3945 34.0609 22.8991 31.9467 23.4037 31.9467C23.6055 31.7454 24.474 32.6992 24.8165 33.1548C25.422 33.9602 26.1284 34.3629 26.633 34.665C26.7107 34.7114 27.3142 34.1616 27.5413 33.2555C27.7431 32.4501 28.1826 30.8043 28.4495 30.94C29.0551 31.2478 30.8716 34.9612 31.2752 35.1625C31.6789 35.3639 32.0278 34.5813 32.0826 34.3629C32.1835 33.9602 32.5872 32.7521 32.789 32.2488C32.9908 31.7454 33.2936 31.1413 33.7982 30.94C34.2018 30.7789 35.3119 33.4569 35.7156 34.0609C36.1231 34.6707 36.5229 34.665 36.7248 34.5643C36.9266 34.4636 38.0027 32.8198 38.5413 32.1481C38.945 31.6447 41.825 29.2285 41.7241 29.3292C41.6232 29.4299 41.4679 32.0474 41.1651 33.5575C40.8624 35.0676 40.8624 36.5778 40.8624 37.5845C40.8624 38.0208 41.367 41.0119 41.6697 42.1149C42.0842 43.625 42.8515 45.566 42.9817 45.7392C43.2844 46.1419 45.3839 50.0181 46.1101 50.4709C46.9174 50.9743 48.734 51.4776 49.2385 51.5783C49.7431 51.679 51.3578 51.0749 51.6606 50.8736C51.9633 50.6722 53.1743 50.5716 53.6789 50.5716C54.1835 50.5716 54.5872 50.8736 55.0917 51.0749C55.5963 51.2763 56.3028 52.3837 56.9083 53.1891C57.3927 53.8334 57.3119 54.4643 57.211 54.6992C54.4862 54.7328 49.2385 54.6992 48.734 54.6992C48.4148 54.6992 46.7156 53.8938 46.4129 53.5918C46.1101 53.2898 43.2844 51.0749 42.9817 50.6722C42.6789 50.2696 40.2569 47.2493 40.0551 46.7459C39.8532 46.2426 38.5413 43.323 38.2385 42.6183C37.9963 42.0545 37.6667 40.2356 37.5321 39.3967C36.2202 39.3631 33.6367 39.3363 33.7982 39.4973C34 39.6987 34 41.5108 34.1009 42.2156C34.2018 42.9203 33.6973 44.3297 33.4954 44.8331C33.2936 45.3365 31.578 46.8466 31.2752 46.7459C30.9725 46.6453 29.2569 48.3567 29.0551 48.6588C28.8532 48.9608 29.156 50.0682 29.2569 50.2696C29.3578 50.4709 30.7706 50.1689 30.9725 50.0682C31.1743 49.9675 32.0826 49.2628 32.3853 49.2628C32.6881 49.2628 33.1927 49.4642 33.6973 49.5648C34.2018 49.6655 34.9083 50.7729 35.4129 51.4776C35.8165 52.0414 35.8502 52.8535 35.8165 53.1891C33.3609 53.2227 28.4092 53.2697 28.2477 53.1891C28.0459 53.0884 27.2385 52.5851 26.9358 52.3837C26.633 52.1824 25.6239 50.9743 25.422 50.4709C25.2202 49.9675 25.1193 48.8601 25.3211 47.8534C25.5229 46.8466 26.1284 46.4439 26.4312 45.4372C26.6734 44.6318 26.1284 43.4908 25.8257 43.021C25.8257 42.5176 23.2739 40.8579 22.8991 41.0075C22.3945 41.2088 21.3853 42.3162 20.7798 42.8196C20.1743 43.323 17.4495 45.0345 16.6422 45.4372C15.9913 45.7618 12.2018 47.048 11.1927 47.4507C10.3442 47.7892 9.6789 48.4574 9.37615 48.9608C9.0734 49.4642 8.87156 50.3702 9.0734 50.7729C9.27523 51.1756 9.98166 51.0749 10.6881 51.0749C11.3945 51.0749 12.8142 50.6902 13.3119 50.7729C13.9174 50.8736 14.8257 51.5783 15.2294 52.4844C15.633 53.3905 15.633 53.7932 15.2294 54.3972C14.9064 54.8805 14.0184 55.2026 13.6147 55.3033C12.1346 55.3704 9.05322 55.3838 8.56881 55.3033C7.96331 55.2026 6.14679 54.9006 5.44037 54.3972C4.73395 53.8938 4.33028 52.283 4.33028 51.8803C4.33028 51.4776 4.33028 48.9608 4.4312 48.5581C4.53211 48.1554 4.62185 46.3544 6.44955 44.5311M10.0826 40.9068C9.6789 41.3095 8.46789 42.5176 6.44955 44.5311M10.0826 40.9068L6.44955 44.5311" stroke="black" stroke-width="0.5"/>
</svg>
